<svg id="Layer_1" data-name="Layer 1" xmlns="http://www.w3.org/2000/svg" xmlns:xlink="http://www.w3.org/1999/xlink" viewBox="0 0 520 395"><defs><style>.cls-1{fill:none;}.cls-2{clip-path:url(#clip-path);}.cls-3{fill:#484848;}.cls-4{fill:#5e873c;}</style><clipPath id="clip-path"><rect class="cls-1" width="520" height="395"/></clipPath></defs><g class="cls-2"><path class="cls-3" d="M184,65.72l-45.76,50.16L158.64,138l20.17,22.34,45.76-50.16c25.17-27.59,45.77-51.07,45.77-52.44,0-3-35.78-42.17-38.48-42.17C230.61,15.57,209.18,38.14,184,65.72Z"/><path class="cls-3" d="M283.86,65.72,238.1,115.88l19.76,21.66,19.76,21.66,46.17-50.61,46.39-50.85L351,36.77c-10.6-11.63-19.76-21.2-20.38-21.2S309,38.14,283.86,65.72Z"/><path class="cls-4" d="M108.51,148.48l-19.14,21,46.39,50.84,46.17,50.61,19.76-21.66,19.76-21.66-45.76-50.15c-25.17-27.59-46.17-50.16-46.8-50.16S119.11,136.86,108.51,148.48Z"/><path class="cls-4" d="M207.93,148.94,188.17,170.6l46.39,50.84,46.18,50.61,20-21.89,20-21.88L277.2,180.63c-23.92-26.22-44.93-48.79-46.59-50.39C227.9,128,224.37,130.93,207.93,148.94Z"/><path class="cls-4" d="M306.11,148.48l-19.13,21,46.38,50.84,46.18,50.61,19.76-21.66,19.76-21.66L373.3,177.44c-25.17-27.59-46.18-50.16-46.8-50.16S316.72,136.86,306.11,148.48Z"/><path class="cls-3" d="M184,289.15l-45.76,50.16,20.39,22.11,20.17,22.34L225,333.15l46.39-50.84-19.76-21.66C240.8,248.8,231.44,239,230.82,239S209.18,261.56,184,289.15Z"/><path class="cls-3" d="M283.23,289.83l-46.17,50.62,19.34,21.2c10.61,11.4,20.18,21,21.22,21,1.24,0,22.67-22.57,47.84-50.15l45.76-50.16-19.76-21.66C340.64,248.8,331.28,239,330.66,239S308.82,261.79,283.23,289.83Z"/></g></svg>