<?xml version="1.0" encoding="utf-8"?>
<!-- Generator: Adobe Illustrator 26.3.1, SVG Export Plug-In . SVG Version: 6.00 Build 0)  -->
<svg version="1.1" id="Layer_1" xmlns="http://www.w3.org/2000/svg" xmlns:xlink="http://www.w3.org/1999/xlink" x="0px" y="0px"
	 viewBox="0 0 116 116" style="enable-background:new 0 0 116 116;" xml:space="preserve">
<g transform="translate(0.000000,512.000000) scale(0.100000,-0.100000)">
	<path d="M579.6,5094.5l-6.3-5.2v-94.8v-94.8l6.3-5c8.1-6.6,19.8-6.6,27.9,0l6.3,5v94.8v94.8l-6.3,5.2c-3.8,3.5-9.1,5.5-14,5.5
		S583.4,5098,579.6,5094.5z"/>
	<path d="M419.8,5002.8l-6.3-5.2v-48.9v-48.9l6.3-5c3.8-3.1,9.4-5,14-5c4.6,0,10.1,2,14,5l6.3,5v48.9v48.9l-6.3,5.2
		c-3.8,3.5-9.1,5.5-14,5.5S423.6,5006.3,419.8,5002.8z"/>
	<path d="M739.3,5002.8l-6.3-5.2v-48.7c0.3-52.4,0.5-54.2,13.4-58.3c7.9-2.6,13.4-1.3,21.6,4.8c5.6,4.4,5.6,5.5,5.6,53.3v48.9
		l-6.3,5.2c-3.8,3.5-9.1,5.5-14,5.5S743.2,5006.3,739.3,5002.8z"/>
	<path d="M542.8,4852.2c-96.9-14.2-182.1-68.6-225.5-144.1c-22.3-38.7-31.7-73.4-31.7-117.9c0-70.8,28.2-132.1,84-182.6
		c104.5-94.8,269.6-110.1,397.7-37.3c9.9,5.5,29.4,19.9,43.4,32.1c46.7,39.7,75.1,86,87.5,143c4.1,18.3,4.1,71.4,0,89.3
		c-22.3,99.4-99.4,176.4-207.7,207.7C647.3,4854.8,587.7,4858.7,542.8,4852.2z M638.1,4815.9c57.1-8.7,106.3-31.4,147.1-67.9
		c32.2-28.8,54-62.2,66.2-101.8c5.8-18.6,6.6-25.5,6.6-56.1c0-31-0.8-37.6-6.6-56.8c-34.2-110.1-150.9-180.8-282.8-171.2
		c-140,10.3-248.1,117.5-240.7,238.7c6.3,105.3,92.6,191.7,213.6,213.8C562.6,4818.5,616.6,4819.2,638.1,4815.9z"/>
	<path d="M582.1,4761.1c-8.9-4.1-11.4-8.7-11.4-21.6v-12.2l-11.2-3.7c-32.7-10.7-57.3-41.9-57.3-72.5c0-23.4,17.8-51.5,40.1-63.8
		c16.7-9.4,24.3-11.6,46.9-13.8c22.6-2.4,31.5-5.5,40.6-14.8c26.6-27.3,5.1-67.9-36.3-67.9c-25.4,0-43.9,14.2-47.9,37.3
		c-3.8,20.3-21.3,27.7-36,15.3c-8.6-7.4-9.1-13.1-3.6-31.9c7.1-23.4,30.9-46.1,56.6-53.7c7.9-2.4,8.1-2.8,8.1-14.4
		c0-14.4,2.5-18.8,12.7-22.5c6.1-2.2,9.1-2.2,15.2,0c10.1,3.5,12.7,8.1,12.7,21.8c0,8.5,1,11.4,4.6,12.2
		c49.5,14.2,77.4,54.4,65.4,94.8c-10.1,33.6-38.3,54.6-79.4,59c-24.9,2.8-27.9,3.7-38.6,10.3c-31.2,20.3-19.5,63.8,19.5,72.5
		c27.6,6.6,58.6-13.8,58.8-38.7c0-9.2,11.7-20.1,21.6-20.1c9.1,0,21.6,10.9,21.6,19c0,12-7.9,32.3-16.7,43.7
		c-10.9,13.8-22.6,21.6-41.3,28.2l-14.2,5l-0.8,10.5c-0.8,12.9-4.3,19-12.4,22.3C591.7,4764.4,588.7,4764.2,582.1,4761.1z"/>
	<path d="M25.9,4347.1c-3-2.6-6.1-7-6.6-9.6c-2.8-10.9-11.2-325.6-8.9-330.8c4.3-10,12.4-10.9,107.5-12.7l88.8-1.5l5.8,5.5
		c4.1,3.7,6.6,9.4,7.6,17l1.8,11.4l29.2,13.1c43.4,19.2,33.7,20.1,197.8-19.7c74.8-18.1,145.6-34.3,157.3-35.8
		c23.1-2.8,65.7-1.7,88.8,2.4c42.1,7.4,58.3,14.2,128.8,53.3c259.5,144.1,314.5,174.9,320.9,179.9c9.4,7.6,9.1,16.6-1,29.7
		c-10.1,12.9-25.1,23.6-44.4,31.2c-19.5,7.6-54.5,9.6-74.1,4.1c-7.1-2.2-51.5-19.4-98.7-38.7c-76.1-31-86-34.5-88.3-31.2
		c-19,27.7-54,48.9-92.3,55.5c-6.3,1.1-52.2,3.1-102,4.4c-104.2,2.6-112.6,3.7-154.2,21.8c-52.5,22.5-89.8,29.7-145.6,27.7
		c-37-1.1-59.4-5.5-94.9-17.7l-21.8-7.4l1.5,15.3c2,19.9-2,28.8-14,31.9c-4.6,1.3-47.4,3.1-96.1,3.9
		C31.9,4351.4,30.9,4351.4,25.9,4347.1z M186.4,4311c0.3-0.2-1.8-59.4-4.1-131.5c-2.5-72.1-4.6-135.4-4.6-140.6l-0.3-9.6l-62.6,1.5
		c-34.5,0.9-62.9,1.7-63.2,2c-0.5,0.4,8.4,277.3,8.9,280.8C60.9,4314.5,185.9,4312.1,186.4,4311z M415.5,4282
		c14.2-3.1,37.8-10.9,58.3-19.2c48.7-19.9,54.3-21,127.3-23.4c137.2-4.6,141.8-4.8,157.8-11.1c19.3-7.6,35.8-21.4,45.1-37.3
		c12.2-21,14.2-19.9-37.3-18.3c-24.9,0.9-78.1,2.2-118.7,2.8c-71.5,1.5-73.8,1.3-79.9-3.1c-8.6-5.9-8.9-21-0.5-26.6
		c7.4-5.2,19.3-5.9,159-9l116.4-2.4l7.4,7c6.8,6.6,7.4,8.3,6.3,21.2l-0.8,14l88,35.8c48.4,19.9,93.1,36.9,99.2,38.2
		c6.1,1.1,15.5,1.5,21.1,0.7c11.9-1.5,34.7-10.9,33.5-13.8c-0.8-2.4-345.5-194.6-360.2-201.1c-5.1-2.2-19.3-6.8-31.7-10
		c-20.3-5.2-26.1-5.9-64.2-5.9h-41.9l-135.7,33.4c-169.9,41.9-175.8,42.6-222.2,22.7c-10.4-4.4-19-7.6-19.5-7
		c-1.3,1.1,4.8,185.2,6.1,186.3c4.6,3.7,37.8,17.7,52.2,21.8C324.4,4290.5,369.5,4291.8,415.5,4282z"/>
</g>
</svg>
