<?xml version="1.0" encoding="utf-8"?>
<!-- Generator: Adobe Illustrator 26.3.1, SVG Export Plug-In . SVG Version: 6.00 Build 0)  -->
<svg version="1.1" id="Layer_1" xmlns="http://www.w3.org/2000/svg" xmlns:xlink="http://www.w3.org/1999/xlink" x="0px" y="0px"
	 viewBox="0 0 124 124" style="enable-background:new 0 0 124 124;" xml:space="preserve">
<g transform="translate(0.000000,512.000000) scale(0.100000,-0.100000)">
	<path d="M544.7,5064.7c-25.6-6.5-48.9-22.6-62.7-43.2c-4.8-6.9-36-61.2-69.8-120.8c-65-115.3-66.6-119.2-57.1-130.3
		c2-2.5,44.2-28.4,93.3-57.3c96.5-56.8,100.8-58.7,111.2-47.8c2.7,2.8,20.4,32.1,39.2,65.4c18.8,33,35.1,60.5,36.2,60.8
		c1.6,0.5,64.8-108.1,64.8-111.6c0-0.7-14.7-9.9-32.8-20.6s-34.4-21.5-36.2-24.3c-5.2-7.2-4.3-20.8,1.8-28
		c4.3-5.3,20.8-10.4,139.7-42.7c74.1-20.3,137.7-37,141.1-37c8.2,0,16.3,5.5,19.5,13.4c3.4,9,72.7,274.3,72.7,278.4
		c0,11.3-11.6,22.4-23.3,22.4c-2.7,0-19.5-8.3-36.7-18.3c-17.4-10.2-32.2-18-33.1-17.3c-1.1,0.5-5.9,8.5-10.9,17.8
		c-14,25.9-22.9,32.3-37.4,26.1c-9.5-3.9-16.1-15.2-13.8-24.3c1.6-6.7,28.1-55.2,36.5-66.5c9.3-12.5,17.4-12.5,40.8,0.5
		c15.4,8.5,19.3,9.9,18.1,6.7c-0.7-2.5-12-45.5-25.1-95.7c-13.4-50.1-24.2-91.5-24.5-91.7c-0.7-0.7-185.5,49.9-186.6,51.1
		c-0.5,0.5,7.9,5.8,18.6,12c21.5,12.2,27.4,19.6,25.4,31.9c-0.7,3.9-44.2,82.9-96.5,175.4c-52.5,92.7-95.4,169.4-95.4,170.5
		s30.3,2.1,73.2,2.1c87.9,0,89.9-0.5,111.7-21c12.7-12,15.4-13.6,23.8-13.6c12.2,0,22.4,9.7,22.4,21.5c0,16.4-26.7,42.1-55.5,52.9
		c-13.1,5.1-16.5,5.3-97.4,5.8C578.9,5067.4,552.8,5066.8,544.7,5064.7z M567.1,4915.9l42.1-74.6l-35.6-62.8
		c-19.5-34.7-35.6-63.1-35.8-63.5c-0.2-0.2-26.3,14.6-58,33.3c-31.7,18.5-61.4,36-65.9,38.8c-4.8,2.5-8.6,5.8-8.6,6.9
		c0,1.6,92,165.9,109.4,195c3.6,6.5,5,7.2,7.2,4.6C523.6,4991.9,543.8,4957,567.1,4915.9z"/>
	<path d="M811.7,4939.4c-13.6-6.7-16.5-24.7-5.7-35.8c12.2-12.5,31.7-7.4,36.7,9.2c3.4,11.6-1.8,22.4-12.7,27
		C820.5,4943.8,820.3,4943.8,811.7,4939.4z"/>
	<path d="M386.1,4662.4c-1.1-0.5-62.3-17.1-135.9-37.2c-148.8-40.2-146.1-39.3-146.1-57.8c0-12.7,4.3-16.9,38.3-36.5
		c15.2-8.5,28.1-16.6,28.8-17.8s-26.7-51.1-60.7-111.1c-68.6-121.3-71.1-126.8-69.1-159c0.7-9.5,2.9-22.4,5-28.9
		c2-6.2,20.8-41.6,41.7-78.6c29.4-52.4,40.3-70,50.5-80.4c16.5-17.1,39.2-28.4,63-31.7c23.3-3,252.3-3,263.2,0
		c4.5,1.4,10.4,5.1,13.1,8.5c4.3,5.8,4.5,8.5,4.5,115.3v109.5l-6.6,7.4l-6.6,7.6l-74.1,0.7c-42.4,0.5-73.6,1.6-73.2,2.8
		c2.5,6.9,62.3,110.7,63.9,110.9c1.1,0,16.3-8.5,34-18.9c37.8-22.2,45.3-23.8,55.9-11.6c3.6,4.2,6.6,10.2,6.6,13.2
		c0,8.5-72,280.7-75.2,284.9c-2.5,3-16.1,10.2-18.1,9.5C388.6,4663.3,387.5,4662.9,386.1,4662.4z M374.6,4606.5
		c1.8-6.2,48.9-186,48.9-186.7c0-0.5-8.8,4.4-19.7,10.6c-24.9,14.1-33.5,14.8-42.8,3.7c-3.6-4.2-48.9-82.7-100.6-174.2
		c-71.1-126.4-94.7-166.1-96.7-164c-5.7,6-71.8,125.9-74.7,135.4c-4.3,14.8-3.6,27.3,2.5,41.8c2.9,6.9,34.4,64.2,70.2,127.1
		c46.2,81.8,64.8,116.2,64.8,121.3c0,10.4-5.2,16.2-24.5,27.7c-9.5,5.8-16.8,10.4-16.3,10.6c0.7,0,41.9,11.3,91.7,25.2
		c49.8,13.6,91.7,25.2,93.3,25.2C372.1,4610.4,373.9,4608.6,374.6,4606.5z M437.1,4147.2v-79.9l-114.1,0.7
		c-62.7,0.5-114.8,1.4-115.5,2.1c-1.1,1.2,68.2,126.2,83.8,151.8l3.2,5.1h71.3h71.3V4147.2z"/>
	<path d="M1036.2,4513.6c-12.7-5.5-179.4-105.1-182.8-109.3c-9.1-10.6-6.1-18.5,29-80.9c18.1-32.1,34.4-60.8,36.2-63.5l3.2-5.3
		h-65.7h-65.7v39.3c0,50.6-2.9,57.8-24.2,57.8c-8.4,0-11.8-3.2-111-104.7l-102.6-104.4v-10.4V4122l99.2-101.4
		c54.4-55.7,101.7-102.8,105.1-104.7c10-5.3,17.4-3.9,25.8,4.6l7.7,7.9v38.4v38.4h124.1c136.6,0,137.9,0.2,164,14.3
		c23.1,12.5,35.3,28.9,75.9,101.4c20.4,36,38.5,70.2,40.8,76c2.5,7.4,3.9,17.6,3.9,34.7c0,21-0.7,26.1-5.7,38.4
		c-7,17.3-127.5,231.1-134.3,238.2C1053.6,4514.1,1042.9,4516.6,1036.2,4513.6z M1094.8,4355.8c30.6-54.3,55.7-99.4,55.7-100
		s-39.9-0.9-88.8-0.7l-88.6,0.7l-35.8,63.1l-35.8,63.1l11.8,6.7c6.6,3.7,36.2,21.3,66.1,38.8c40.1,23.8,55,31.4,56.8,29.6
		C1037.7,4455.6,1064,4410.1,1094.8,4355.8z M748.3,4219.2c5-11.1,1.8-10.9,208.6-10.9h193.6l-4.3-8.8c-2.3-4.9-18.8-34.2-36.2-65.2
		c-35.6-62.8-44.2-73.7-64.3-79.7c-9.7-3-32.6-3.5-147-3.5c-147.2,0-145.2,0.2-150.8-12.7c-1.6-3.2-2.7-15-2.7-26.1v-20.1
		l-69.1,70.5l-69.1,70.5l68.4,70l68.6,69.8l1.1-24.7C745.8,4234.5,747.2,4221.6,748.3,4219.2z"/>
</g>
</svg>
