<?xml version="1.0" encoding="utf-8"?>
<!-- Generator: Adobe Illustrator 26.3.1, SVG Export Plug-In . SVG Version: 6.00 Build 0)  -->
<svg version="1.1" id="Layer_1" xmlns="http://www.w3.org/2000/svg" xmlns:xlink="http://www.w3.org/1999/xlink" x="0px" y="0px"
	 viewBox="0 0 91 111" style="enable-background:new 0 0 91 111;" xml:space="preserve">
<g transform="translate(0.000000,512.000000) scale(0.100000,-0.100000)">
	<path d="M569.5,4982.2c-51.2-7.2-103.1-40.4-127.8-81.8c-3.2-5.2-6.1-9.7-6.6-9.7c-0.5,0-2.4,2.3-4.1,5.1
		c-4.6,7.4-22.3,25.4-33.3,33.5c-29.2,21.8-62,32.2-100.4,32.2c-18.6,0-23.5-0.7-31.8-3.8c-15.6-5.7-26.2-15.2-34-29.9
		c-6.6-12.3-6.8-13.4-7.4-31.9c-2.2-61.7,29.7-116.2,84-142.5c15.9-7.9,33.3-11.6,60.2-12.9c20.6-1.1,24.7-1.8,30.3-5.1
		c8.6-5.2,14.9-14.9,15.9-24.5l0.7-8l-9.8-2.8c-23-6.4-47.2-21.3-65.9-40.6c-54.9-55.8-54.9-144.5,0-200.3
		c14.7-15.1,28.4-24.7,47.2-33.2c40.6-18.5,90.8-18.2,129.8,0.8c43.3,20.9,73.4,58.2,82.8,102.8c14,65.8-19.4,131.5-82.3,162
		c-6.4,3.1-16.2,7-21.6,8.5l-9.8,2.8l0.7,8c1,9.7,7.3,19.3,15.7,24.4c4.7,2.8,11,4.1,27.6,5.9c34.5,3.4,59.2,12.8,83.5,31.4
		c15.7,12.1,19.9,17.2,19.9,24.2c0,5.7-6.3,12.1-11.8,12.1c-1.7,0-9.8-5.6-17.9-12.3c-25.4-20.6-46-28.6-82.1-31.7
		c-13.7-1.1-19.6-2.5-26.5-5.7c-17.9-8.8-28.9-22.9-33-42.2l-2-10l-9.5-0.3l-9.5-0.2l-0.8,8c-2.4,18.2-14.4,34.7-31.9,43.7
		c-10.1,5.2-11.5,5.6-36,6.7c-19.9,1-28.4,2.3-39,5.4c-37.9,11.6-67.9,44.5-79.4,86.9c-4.4,16-4.6,51.7-0.2,59.2
		c4.2,7.7,14.2,16.4,21.3,18.8c7.9,2.6,38.7,2.6,51.7-0.2c24.3-5.1,50.4-18.5,68.1-35c9.1-8.5,20.5-23.6,26.5-35.5
		c6.3-12.1,9-14.7,15.2-14.7c7.6,0,10.1,2.6,16.1,15.9c26,59.7,85.9,96.9,150.3,93.4c22.8-1.3,37.2-9.3,44.3-25
		c7.4-16.2,5.4-50.6-4.4-78.9c-6.9-19.6-7.1-21.8-2-26.3c8.8-8,17.6-3.4,23.8,12.3c14.7,37.8,16.6,79.5,4.7,104.2
		c-9.6,19.8-28.2,33.2-51.2,36.8C605,4984.3,584,4984.2,569.5,4982.2z M479.9,4678.8c44.3-11.3,77.4-41.2,91.4-83.4
		c5.7-17,7.3-42.4,3.5-59.2c-5.7-25.5-16.6-44.7-35.8-63.5c-15.6-15.1-29.9-23.7-49-29.6c-47.7-14.6-95-3.4-130.1,31.1
		c-15,14.7-24.7,30.4-31.6,51.7c-5.6,17.7-5.6,49.4,0,67.1c12.8,39.6,42.6,69.9,81.5,82.6C432.1,4682.9,458.6,4684.1,479.9,4678.8z"
		/>
	<path d="M435.1,4616.5c-17.9-4.6-30.8-15.1-40.1-32.1c-4.2-7.9-4.7-10.3-4.7-25c0-15.5,0.3-16.9,5.7-26.7
		c13.4-23.7,39.7-36.5,65.4-31.4c19.4,3.8,34.3,15.1,44.1,33.1c4.2,7.9,4.7,10.3,4.7,25c0,14.7-0.5,17.2-4.7,25
		c-9.5,17.5-23.5,28.3-41.6,32.4C452.2,4619.6,446.8,4619.6,435.1,4616.5z M467,4589.8c32.5-16.2,19.9-64.8-16.7-64.6
		c-20.5,0-35.5,14.7-35.5,34.2C414.8,4585.7,442.5,4601.8,467,4589.8z"/>
	<path d="M587.9,4922c-55.4-20.5-104.6-56.4-139.3-101.9c-5.9-8-11.3-14.4-11.8-14.4c-0.5,0.2-5.1,6.1-10.1,13.3
		c-11.5,16.2-40.4,43.8-57.5,55c-21.5,13.9-61.2,31.6-71.2,31.6c-5.1,0-11.7-7.2-11.7-12.9c0-6.1,5.1-10.1,17.2-14.1
		c46.8-14.7,91.6-51.4,116.5-95.1c7.9-13.9,10.1-15.9,16.9-15.7s8.1,1.5,16.7,15.4c21,34.4,51.6,65.3,86.2,87.5
		c18.6,11.9,32.6,18.8,55.1,27.5c11,4.3,21.5,8.8,23.2,10.3c6.6,5.7,0,20-9.3,20C606.7,4928.4,597.2,4925.4,587.9,4922z"/>
	<path d="M65.4,4705.8c-18.8-3.8-33.1-14.4-41.4-30.8l-5.6-11l-0.5-61.4c-0.5-60.5-0.5-61.7,3-65.9c4.6-5.6,13.2-6.1,17.9-1
		c3,3.3,3.2,7.4,4.1,64.3c0.8,60,0.8,60.7,4.7,66.9c9,13.7,29.4,18.8,43.8,11.1c7.8-4.3,6.1-2.3,47.7-57.1
		c18.1-23.7,34.5-43.8,36.7-44.8c7.3-3.3,17.6,3.9,17.6,12.3c0,1-2.7,5.7-6.1,10.5l-5.9,8.3l0.5,26.8c0.5,26.2,0.7,27.2,5.2,33.7
		c13.7,20.1,45,18.3,55.9-3.3l4.4-8.5v-95.9c0-69.2-0.5-97.7-2-101.6c-4.7-13.4-16.1-21.3-30.6-21.4c-17.1-0.2-18.9,1.5-59.7,55.1
		c-20.1,26.7-38.2,49.2-39.9,50.1c-7.3,3.8-18.3-2.6-18.3-10.8c0-1.8,2.7-7,6.1-11.8l6.1-8.5l-0.7-26.7c-0.5-24.5-0.8-27.2-4.4-32.9
		c-13.2-20.3-45.6-19.3-57.3,2c-3.4,6.4-3.9,9.5-3.9,26.3c0,16.4-0.5,19.8-3.2,23.1c-4.4,5.4-14.5,5.2-19.1-0.2
		c-3-3.6-3.2-6.1-2.7-26.2c0.5-21.3,0.7-22.6,6.1-33.1c21.1-41.6,82.5-41.9,103.6-0.5c3.7,7.4,5.6,13.7,6.3,22.3l1.2,11.9l19.4-25.4
		c25.7-33.2,35.3-39.6,60.3-39.6c26.9,0.2,50.9,18.8,56.3,43.8c1.2,5.7,1.7,41.2,1.4,108.1c-0.5,98.5-0.5,99.8-4.2,107.3
		c-10.6,22.4-29.2,34.2-53.7,34.4c-31.4,0-55.4-21.8-58.1-52.5l-1-12.4l-18.8,24.5c-10.3,13.6-21.6,26.7-25.2,29.3
		C99.2,4704.2,79.8,4708.6,65.4,4705.8z"/>
	<path d="M675.3,4705.8c-18.1-3.6-34.1-16-42.1-32.4l-4.6-9.3v-104.7c0-104.2,0-104.7,3.7-112.4c10.6-22.4,29.2-34.2,53.7-34.4
		c31.6,0,55.1,21.4,58,52.8l1.2,12.1l18.9-24.9c25-32.9,35.8-39.9,60.5-40.1c23.2,0,42.9,12.1,52.7,32.2l4.7,9.8v104.7v104.7
		l-5.6,11c-21.1,41.6-82.5,41.9-103.6,0.5c-3.7-7.4-5.6-13.7-6.3-22.3l-1.2-12.1l-18.3,24.1c-10,13.3-21.1,26.3-24.5,29.1
		C711.1,4703.7,690.3,4708.8,675.3,4705.8z M702.8,4677.4c4.9-2.6,14.9-14.4,42.9-51.5c20.1-26.3,38.2-48.8,40.4-49.7
		c6.1-2.6,15,2.1,16.6,8.7c1,4.4,0.2,6.7-4.9,13.7l-6.1,8.5v25.5c0,23.4,0.3,25.9,3.9,32.6c11.7,21.3,44.1,22.3,57.3,2l3.9-6.2
		v-101.4V4458l-3.9-6.2c-5.7-8.8-17.1-14.7-28.1-14.7c-16.6,0-19.1,2.3-59.7,55.8c-20.1,26.5-38.2,48.9-40.4,49.7
		c-7.3,3.3-17.6-3.9-17.6-12.3c0-1,2.7-5.7,6.1-10.5l5.9-8.3l-0.5-26.8c-0.5-26.2-0.7-27.2-5.2-33.7c-13.9-20.3-44.8-18.3-56.1,3.6
		l-4.2,8.2v96.7v96.7l4.2,8.2C666.2,4681.3,685.3,4686.7,702.8,4677.4z"/>
	<path d="M25,4381.2c-8.5-3.6-10.1-12.8-3.5-18.7c3.5-3.3,5.9-3.6,29.9-3.9l26.2-0.5l0.5-102.6l0.3-102.6l4.4-3.3
		c7.3-5.6,14.5-4.3,18.4,3.3c2.2,3.9,2.5,20.1,2.5,105.4V4359h26.7c24.2,0,27.2,0.3,29.7,3.1c4.2,4.4,4.1,12.8-0.5,17
		c-3.5,3.6-4.4,3.6-66.6,3.9C43,4383.4,29.3,4383,25,4381.2z"/>
	<path d="M263.4,4381.9c-14.7-2-23.5-4.4-37-10.5c-30.6-13.7-52.7-38.1-64.4-70.5c-4.4-11.9-4.7-15.1-4.7-36c0-20.5,0.5-24.4,4.6-36
		c6.4-18.8,15.4-32.6,30.8-47.4c15.7-15.2,27-22.1,47.7-29.1c13.7-4.6,16.7-5.1,36.8-5.1c18.4-0.2,24,0.5,34.6,3.6
		c39.9,12.1,69,39.1,82.1,76.4c6.1,17.2,7.6,45.2,3.4,63.3c-7.4,32.4-31.4,62.8-61.7,78C313.1,4379.9,286.2,4384.8,263.4,4381.9z
		 M300.7,4355.4c4.7-0.8,13.9-4.1,20.3-7.2c31.4-14.9,51-43.7,52.9-78c1.5-29.8-6.9-51.2-28.2-71.5c-30.6-29.3-71-35.8-109.7-17.8
		c-51.7,24.1-70.1,87.5-39,134C219.6,4348.7,258.5,4363.9,300.7,4355.4z"/>
	<path d="M408.6,4381.9c-4.4-1.6-7.3-6.4-7.3-11.9c0-2.3,12.5-21.1,33.1-49.4c18.3-25,33.5-46.5,33.8-47.4c0.5-1-16.9-26-38.5-55.8
		c-32.5-44.5-39.2-54.8-39.2-59.4c0-9.8,11.3-15.1,19.1-8.7c2,1.5,19.4,24.4,38.7,50.9c19.3,26.5,35.8,48.4,36.7,48.6
		c1,0.3,17.7-21.6,37.2-48.8c19.6-27,37-50.1,38.9-51.4c1.9-1.3,5.1-2.3,7.3-2.3c5.1,0,12.2,7,12.2,11.9c0,2.6-14,23.2-38.5,57.1
		c-21.3,29.1-39.2,53.8-39.9,55c-0.8,1.3,11.5,19.5,32.6,48.6c36.3,49.9,38.4,53.8,30.6,60.5c-3.9,3.4-12.2,3.9-15.7,1
		c-1.4-1-16.4-20.9-33.3-44.3c-17.1-23.4-31.1-42.4-31.4-42.2c-0.2,0.3-13.5,18.5-29.4,40.6c-15.9,22.1-30.6,41.7-32.6,43.5
		C418.2,4382.4,413.3,4383.7,408.6,4381.9z"/>
	<path d="M625.1,4381.9c-9.5-3.6-9.1,0.2-9.1-116.7c0-91.3,0.3-108.3,2.5-112.2c3.9-7.5,11.2-8.8,18.4-3.3l4.4,3.3v111.1
		c0,103.2-0.2,111.1-2.9,114.2C634.7,4382.4,629.8,4383.7,625.1,4381.9z"/>
	<path d="M784.8,4381.7c-6.3-0.8-16.7-3.3-23.5-5.7c-63-21.9-96.9-88-75.7-148.7c26.7-77.4,129.3-107.2,186.4-54.3
		c12.2,11.3,13.5,15.5,7.4,23.1c-5.6,7-11.8,5.7-23.7-4.4c-21.1-18.5-45.1-24.4-75-18.3c-18.6,3.8-31.9,11.1-46.7,25.2
		c-19.9,19.3-29.1,39.6-28.9,65.4c0,27.2,8.6,47.6,28.2,66.4c19.3,18.8,41.6,27.5,69.5,27.3c16.1,0,29.2-3.3,44.6-11.1
		c17.4-8.8,27-6.4,27,6.9c0,6.4-4.2,10-21.1,17.8C833.5,4380.6,807.1,4384.7,784.8,4381.7z"/>
</g>
</svg>
